<svg xmlns="http://www.w3.org/2000/svg" enable-background="new 0 0 32 32" viewBox="0 0 32 32"><path d="M27.65002,0.94c-0.28003-0.28003-0.67004-0.44-1.06-0.44c-0.40002,0-0.78003,0.15997-1.06,0.44L14.06,12.39996C13.79999,12.65997,13.65002,13.01001,13.63,13.38l-0.20001,3.60999c-0.02002,0.41998,0.14001,0.83997,0.44,1.14001c0.28003,0.27997,0.66003,0.44,1.06,0.44h0.08002L18.62,18.37c0.35999-0.02002,0.71002-0.17999,0.97003-0.44L31.06,6.47998C31.34003,6.19,31.5,5.81,31.5,5.41998c0-0.40002-0.15997-0.77997-0.44-1.07001L27.65002,0.94z"/><path d="M5.56445,31.5h16.63477c2.79297,0,5.06445-2.27197,5.06445-5.06445V16.18115c0-0.82861-0.67188-1.5-1.5-1.5s-1.5,0.67139-1.5,1.5v10.25439c0,1.13818-0.92578,2.06445-2.06445,2.06445H5.56445C4.42578,28.5,3.5,27.57373,3.5,26.43555V9.80078c0-1.13818,0.92578-2.06445,2.06445-2.06445h10.25488c0.82813,0,1.5-0.67139,1.5-1.5s-0.67188-1.5-1.5-1.5H5.56445C2.77148,4.73633,0.5,7.0083,0.5,9.80078v16.63477C0.5,29.22803,2.77148,31.5,5.56445,31.5z"/></svg>