<svg width="57" height="57" viewBox="0 0 57 57" fill="none" xmlns="http://www.w3.org/2000/svg">
<path fill-rule="evenodd" clip-rule="evenodd" d="M16.6587 0.170066C19.6813 0.030921 20.645 0 28.3443 0C36.0437 0 37.0074 0.0334978 40.0274 0.170066C43.0473 0.306634 45.1087 0.788488 46.9124 1.48679C48.8012 2.20055 50.5148 3.31629 51.932 4.75927C53.375 6.17391 54.4881 7.88488 55.1993 9.77622C55.9002 11.5799 56.3795 13.6414 56.5186 16.6562C56.6577 19.6839 56.6887 20.6476 56.6887 28.3443C56.6887 36.0437 56.6552 37.0074 56.5186 40.0299C56.382 43.0447 55.9002 45.1061 55.1993 46.9099C54.4881 48.8015 53.3731 50.5153 51.932 51.932C50.5148 53.375 48.8012 54.4881 46.9124 55.1993C45.1087 55.9002 43.0473 56.3795 40.0325 56.5186C37.0074 56.6577 36.0437 56.6887 28.3443 56.6887C20.645 56.6887 19.6813 56.6552 16.6587 56.5186C13.6439 56.382 11.5825 55.9002 9.7788 55.1993C7.88725 54.488 6.17345 53.373 4.75669 51.932C3.31469 50.5165 2.19879 48.8035 1.48679 46.9124C0.788488 45.1087 0.309211 43.0473 0.170066 40.0325C0.030921 37.0048 0 36.0411 0 28.3443C0 20.645 0.0334978 19.6813 0.170066 16.6613C0.306634 13.6414 0.788488 11.5799 1.48679 9.77622C2.19984 7.88509 3.31659 6.17214 4.75927 4.75669C6.17402 3.315 7.8861 2.19912 9.77622 1.48679C11.5799 0.788488 13.6414 0.309211 16.6562 0.170066H16.6587ZM39.798 5.27205C36.809 5.13548 35.9123 5.10713 28.3443 5.10713C20.7764 5.10713 19.8797 5.13548 16.8906 5.27205C14.1258 5.39831 12.6261 5.85955 11.6263 6.24864C10.3045 6.76399 9.35878 7.37468 8.36673 8.36673C7.42633 9.28161 6.70261 10.3954 6.24864 11.6263C5.85955 12.6261 5.39831 14.1258 5.27205 16.8906C5.13548 19.8797 5.10713 20.7764 5.10713 28.3443C5.10713 35.9123 5.13548 36.809 5.27205 39.798C5.39831 42.5629 5.85955 44.0626 6.24864 45.0623C6.70215 46.2915 7.42622 47.4072 8.36673 48.3219C9.28148 49.2625 10.3972 49.9865 11.6263 50.44C12.6261 50.8291 14.1258 51.2904 16.8906 51.4166C19.8797 51.5532 20.7738 51.5815 28.3443 51.5815C35.9148 51.5815 36.809 51.5532 39.798 51.4166C42.5629 51.2904 44.0626 50.8291 45.0623 50.44C46.3842 49.9247 47.3299 49.314 48.3219 48.3219C49.2625 47.4072 49.9865 46.2915 50.44 45.0623C50.8291 44.0626 51.2904 42.5629 51.4166 39.798C51.5532 36.809 51.5815 35.9123 51.5815 28.3443C51.5815 20.7764 51.5532 19.8797 51.4166 16.8906C51.2904 14.1258 50.8291 12.6261 50.44 11.6263C49.9247 10.3045 49.314 9.35878 48.3219 8.36673C47.407 7.4264 46.2933 6.70269 45.0623 6.24864C44.0626 5.85955 42.5629 5.39831 39.798 5.27205ZM24.724 37.0821C26.7459 37.9238 28.9972 38.0374 31.0936 37.4035C33.1899 36.7696 35.0011 35.4276 36.2179 33.6067C37.4347 31.7858 37.9816 29.5989 37.7651 27.4195C37.5486 25.2402 36.5822 23.2036 35.031 21.6576C34.0422 20.6694 32.8465 19.9127 31.5301 19.442C30.2137 18.9713 28.8093 18.7984 27.418 18.9356C26.0267 19.0728 24.6832 19.5168 23.4841 20.2356C22.285 20.9544 21.2602 21.9301 20.4834 23.0925C19.7067 24.2549 19.1973 25.5751 18.992 26.9579C18.7867 28.3408 18.8906 29.752 19.2962 31.0899C19.7017 32.4278 20.3989 33.6592 21.3374 34.6953C22.276 35.7315 23.4326 36.5466 24.724 37.0821ZM18.0425 18.0425C19.3953 16.6896 21.0014 15.6164 22.769 14.8843C24.5366 14.1521 26.4311 13.7753 28.3443 13.7753C30.2576 13.7753 32.1521 14.1521 33.9197 14.8843C35.6873 15.6164 37.2934 16.6896 38.6462 18.0425C39.9991 19.3953 41.0722 21.0014 41.8044 22.769C42.5365 24.5366 42.9134 26.4311 42.9134 28.3443C42.9134 30.2576 42.5365 32.1521 41.8044 33.9197C41.0722 35.6873 39.9991 37.2934 38.6462 38.6462C35.914 41.3784 32.2083 42.9134 28.3443 42.9134C24.4804 42.9134 20.7747 41.3784 18.0425 38.6462C15.3102 35.914 13.7753 32.2083 13.7753 28.3443C13.7753 24.4804 15.3102 20.7747 18.0425 18.0425ZM46.1446 15.945C46.4798 15.6287 46.7482 15.2484 46.9338 14.8266C47.1195 14.4048 47.2186 13.95 47.2253 13.4891C47.232 13.0283 47.1462 12.5708 46.973 12.1438C46.7997 11.7167 46.5425 11.3287 46.2166 11.0029C45.8907 10.677 45.5028 10.4198 45.0757 10.2465C44.6486 10.0733 44.1912 9.98745 43.7303 9.99417C43.2695 10.0009 42.8147 10.1 42.3929 10.2856C41.9711 10.4713 41.5908 10.7397 41.2745 11.0749C40.6595 11.7269 40.3227 12.5929 40.3358 13.4891C40.3489 14.3854 40.7107 15.2412 41.3445 15.875C41.9783 16.5088 42.8341 16.8706 43.7303 16.8837C44.6266 16.8968 45.4926 16.56 46.1446 15.945Z" fill="black"/>
</svg>
